<svg width="28" height="11" viewBox="0 0 28 11" fill="none" xmlns="http://www.w3.org/2000/svg">
<g clip-path="url(#clip0_25_203)">
<mask id="mask0_25_203" style="mask-type:luminance" maskUnits="userSpaceOnUse" x="0" y="0" width="28" height="11">
<path d="M0.23584 0.498671V10.604H27.6022V0.498671H0.23584Z" fill="white"/>
</mask>
<g mask="url(#mask0_25_203)">
<path d="M19.5631 1.56209L19.74 3.98942C13.58 3.98942 7.42734 3.82075 1.2747 3.79142C0.981566 3.79142 0.700434 3.90732 0.493157 4.11361C0.28588 4.3199 0.169434 4.59968 0.169434 4.89142C0.169434 5.18316 0.28588 5.46296 0.493157 5.66924C0.700434 5.87554 0.981566 5.99142 1.2747 5.99142C7.47892 5.99142 13.6905 6.21142 19.8947 6.18942L20.1379 9.51877C20.1463 9.73239 20.2159 9.93911 20.3384 10.1147C20.461 10.2902 20.6314 10.4273 20.8296 10.5098C21.0278 10.5922 21.2455 10.6166 21.4571 10.58C21.6687 10.5435 21.8655 10.4475 22.0242 10.3034L27.1452 5.83742H27.1821L27.241 5.78609C27.3538 5.67914 27.4416 5.54879 27.498 5.40428C27.5546 5.25977 27.5784 5.10465 27.5678 4.94994C27.5573 4.79524 27.5126 4.64475 27.437 4.50917C27.3614 4.37357 27.2568 4.25622 27.1305 4.16542L27.02 4.05542C25.2268 2.69618 23.2807 1.54935 21.221 0.638085C20.5579 0.300751 19.5631 0.645426 19.5631 1.56209Z" fill="white"/>
</g>
</g>
<defs>
<clipPath id="clip0_25_203">
<rect width="28" height="11" fill="white"/>
</clipPath>
</defs>
</svg>
