<svg width="14" height="38" viewBox="0 0 14 38" fill="none" xmlns="http://www.w3.org/2000/svg">
<path d="M12.33 26.2299L9.01997 26.4699C9.01997 18.1099 9.24998 9.75991 9.28998 1.40991C9.28998 1.01209 9.13193 0.630555 8.85063 0.349251C8.56933 0.0679462 8.1878 -0.0900879 7.78998 -0.0900879C7.39215 -0.0900879 7.01061 0.0679462 6.72931 0.349251C6.448 0.630555 6.28998 1.01209 6.28998 1.40991C6.28998 9.82991 5.98997 18.2599 6.01997 26.6799L1.47998 27.0099C1.1887 27.0214 0.906749 27.1159 0.667341 27.2822C0.427933 27.4485 0.241016 27.6797 0.128599 27.9487C0.0161824 28.2177 -0.0170576 28.5131 0.0327893 28.8003C0.0826362 29.0876 0.213501 29.3546 0.409971 29.5699L6.49997 36.5199V36.5699L6.56997 36.6499C6.71581 36.803 6.89356 36.9221 7.09062 36.9988C7.28768 37.0754 7.49922 37.1077 7.71017 37.0934C7.92113 37.0791 8.12634 37.0185 8.31123 36.9159C8.49613 36.8134 8.65616 36.6713 8.77997 36.4999L8.92998 36.3499C10.7835 33.9163 12.3474 31.2752 13.59 28.4799C14.05 27.5799 13.58 26.2299 12.33 26.2299Z" fill="white"/>
</svg>
