<svg width="38" height="15" viewBox="0 0 38 15" fill="none" xmlns="http://www.w3.org/2000/svg">
<g clip-path="url(#clip0_20_309)">
<path d="M11.2299 13.0099L10.9899 9.6999C19.3499 9.6999 27.6999 9.92991 36.0499 9.96991C36.4478 9.96991 36.8293 9.81187 37.1106 9.53056C37.3919 9.24926 37.5499 8.86773 37.5499 8.46991C37.5499 8.07208 37.3919 7.69054 37.1106 7.40924C36.8293 7.12793 36.4478 6.96991 36.0499 6.96991C27.6299 6.96991 19.1999 6.6699 10.7799 6.6999L10.4499 2.15991C10.4384 1.86863 10.344 1.58668 10.1777 1.34727C10.0114 1.10786 9.7801 0.920948 9.51114 0.808531C9.24218 0.696114 8.94671 0.662874 8.65949 0.712721C8.37228 0.762568 8.10528 0.893433 7.88993 1.0899L0.939926 7.1799H0.889927L0.809929 7.24991C0.656827 7.39574 0.537719 7.57349 0.461067 7.77055C0.384416 7.96761 0.352102 8.17915 0.366421 8.3901C0.380739 8.60106 0.441335 8.80627 0.543911 8.99116C0.646487 9.17606 0.788523 9.33609 0.959927 9.4599L1.10993 9.60991C3.54351 11.4634 6.18463 13.0273 8.97993 14.2699C9.87993 14.7299 11.2299 14.2599 11.2299 13.0099Z" fill="white"/>
</g>
<defs>
<clipPath id="clip0_20_309">
<rect width="13.78" height="37.14" fill="white" transform="matrix(0 1 -1 0 37.46 0.679932)"/>
</clipPath>
</defs>
</svg>
